<?xml version="1.0" standalone="no"?>
<!DOCTYPE svg PUBLIC "-//W3C//DTD SVG 20010904//EN"
 "http://www.w3.org/TR/2001/REC-SVG-20010904/DTD/svg10.dtd">
<svg version="1.0" xmlns="http://www.w3.org/2000/svg"
 width="384.000000pt" height="384.000000pt" viewBox="0 0 384.000000 384.000000"
 preserveAspectRatio="xMidYMid meet">
<metadata>
Created by potrace 1.11, written by Peter Selinger 2001-2013
</metadata>
<g transform="translate(0.000000,384.000000) scale(0.100000,-0.100000)"
fill="#000000" stroke="none">
<path d="M3200 3714 c-327 -29 -605 -53 -617 -53 -21 -1 -23 -6 -23 -56 0 -30
-3 -55 -7 -55 -5 0 -267 -23 -583 -50 -316 -27 -581 -50 -587 -50 -10 0 -13
25 -13 90 l0 91 -47 -6 c-27 -3 -313 -28 -638 -55 -324 -28 -611 -53 -637 -56
l-48 -6 0 -218 0 -218 37 4 c58 7 964 84 985 84 16 0 18 -10 18 -91 l0 -91 58
6 c31 4 424 38 872 76 448 38 841 72 873 76 l57 6 0 53 0 54 53 5 c51 6 863
76 879 76 4 0 8 99 8 220 l0 220 -22 -1 c-13 -1 -291 -25 -618 -55z"/>
<path d="M3200 2994 c-327 -29 -605 -53 -617 -53 -21 -1 -23 -6 -23 -56 0 -30
-3 -55 -7 -55 -5 0 -267 -23 -583 -50 -316 -27 -581 -50 -587 -50 -10 0 -13
25 -13 90 l0 91 -47 -6 c-27 -3 -313 -28 -638 -55 -324 -28 -611 -53 -637 -56
l-48 -6 0 -218 0 -218 37 4 c58 7 964 84 985 84 16 0 18 -10 18 -91 l0 -91 58
6 c31 4 424 38 872 76 448 38 841 72 873 76 l57 6 0 53 0 54 53 5 c51 6 863
76 879 76 4 0 8 99 8 220 l0 220 -22 -1 c-13 -1 -291 -25 -618 -55z"/>
<path d="M3200 2274 c-327 -29 -605 -53 -617 -53 -21 -1 -23 -6 -23 -56 0 -30
-3 -55 -7 -55 -5 0 -267 -23 -583 -50 -316 -27 -581 -50 -587 -50 -10 0 -13
25 -13 90 l0 91 -47 -6 c-27 -3 -313 -28 -638 -55 -324 -28 -611 -53 -637 -56
l-48 -6 0 -218 0 -218 37 4 c58 7 964 84 985 84 16 0 18 -10 18 -91 l0 -91 58
6 c31 4 424 38 872 76 448 38 841 72 873 76 l57 6 0 53 0 54 53 5 c51 6 863
76 879 76 4 0 8 99 8 220 l0 220 -22 -1 c-13 -1 -291 -25 -618 -55z"/>
<path d="M3200 1554 c-327 -29 -605 -53 -617 -53 -21 -1 -23 -6 -23 -56 0 -30
-3 -55 -7 -55 -5 0 -267 -23 -583 -50 -316 -27 -581 -50 -587 -50 -10 0 -13
25 -13 90 l0 91 -47 -6 c-27 -3 -313 -28 -638 -55 -324 -28 -611 -53 -637 -56
l-48 -6 0 -218 0 -218 37 4 c58 7 964 84 985 84 16 0 18 -10 18 -91 l0 -91 58
6 c31 4 424 38 872 76 448 38 841 72 873 76 l57 6 0 53 0 54 53 5 c51 6 863
76 879 76 4 0 8 99 8 220 l0 220 -22 -1 c-13 -1 -291 -25 -618 -55z"/>
<path d="M3200 834 c-327 -29 -605 -53 -617 -53 -21 -1 -23 -6 -23 -56 0 -30
-3 -55 -7 -55 -5 0 -267 -23 -583 -50 -316 -27 -581 -50 -587 -50 -10 0 -13
25 -13 90 l0 91 -47 -6 c-27 -3 -313 -28 -638 -55 -324 -28 -611 -53 -637 -56
l-48 -6 0 -218 0 -218 37 4 c58 7 964 84 985 84 16 0 18 -10 18 -91 l0 -91 58
6 c31 4 424 38 872 76 448 38 841 72 873 76 l57 6 0 53 0 54 53 5 c51 6 863
76 879 76 4 0 8 99 8 220 l0 220 -22 -1 c-13 -1 -291 -25 -618 -55z"/>
</g>
</svg>
